{
	"asset":{
		"version":"2.0",
		"generator":"Created using the official Cinema 4D glTF Exporter 1.000x284978"
	},
	"scenes":[{
		"nodes":[0]
	}],
	"nodes":[{
		"name":"Airport",
		"translation":[0.0,
		0.0,
		0.0],
		"rotation":[0.0,
		0.0,
		0.0,
		-1.0],
		"scale":[1.0,
		1.0,
		1.0],
		"children":[1,
		2,
		3]
	},
	{
		"name":"Airport",
		"translation":[0.0,
		0.0,
		0.0],
		"rotation":[0.0,
		0.0,
		0.0,
		-1.0],
		"mesh":0,
		"scale":[1.0,
		1.0,
		1.0]
	},
	{
		"name":"Airport-Mat",
		"translation":[0.0,
		0.0,
		0.0],
		"rotation":[0.0,
		0.0,
		0.0,
		-1.0],
		"mesh":1,
		"scale":[1.0,
		1.0,
		1.0]
	},
	{
		"name":"Airport-Mat",
		"translation":[0.0,
		0.0,
		0.0],
		"rotation":[0.0,
		0.0,
		0.0,
		-1.0],
		"mesh":2,
		"scale":[1.0,
		1.0,
		1.0]
	}],
	"meshes":[{
		"name":"Airport",
		"primitives":[{
			"attributes":{
				"POSITION":1,
				"NORMAL":2,
				"TEXCOORD_0":3
			},
			"indices":0
		}]
	},
	{
		"name":"Airport-Mat",
		"primitives":[{
			"attributes":{
				"POSITION":5,
				"NORMAL":6,
				"TEXCOORD_0":7
			},
			"indices":4,
			"material":0
		}]
	},
	{
		"name":"Airport-Mat",
		"primitives":[{
			"attributes":{
				"POSITION":9,
				"NORMAL":10,
				"TEXCOORD_0":11
			},
			"indices":8,
			"material":1
		}]
	}],
	"accessors":[{
		"bufferView":0,
		"type":"SCALAR",
		"componentType":5123,
		"count":561,
		"byteOffset":0,
		"min":[0],
		"max":[236]
	},
	{
		"bufferView":1,
		"type":"VEC3",
		"componentType":5126,
		"count":237,
		"byteOffset":0,
		"min":[-17.662193298339845,
		-0.05000000074505806,
		-42.88019943237305],
		"max":[4.864509105682373,
		1.8987497091293336,
		-29.872364044189454]
	},
	{
		"bufferView":1,
		"type":"VEC3",
		"componentType":5126,
		"count":237,
		"byteOffset":12,
		"min":[-1.0,
		0.0,
		-1.0],
		"max":[1.0,
		1.0,
		1.0]
	},
	{
		"bufferView":1,
		"type":"VEC2",
		"componentType":5126,
		"count":237,
		"byteOffset":24,
		"min":[0.031663678586483,
		0.0],
		"max":[0.9683365821838379,
		1.0]
	},
	{
		"bufferView":2,
		"type":"SCALAR",
		"componentType":5123,
		"count":258,
		"byteOffset":0,
		"min":[0],
		"max":[151]
	},
	{
		"bufferView":3,
		"type":"VEC3",
		"componentType":5126,
		"count":152,
		"byteOffset":0,
		"min":[-19.951404571533204,
		0.05000176280736923,
		-49.87030029296875],
		"max":[6.752098083496094,
		0.05008995905518532,
		-23.0049991607666]
	},
	{
		"bufferView":3,
		"type":"VEC3",
		"componentType":5126,
		"count":152,
		"byteOffset":12,
		"min":[0.0,
		-1.0,
		-0.00003125000148429535],
		"max":[0.0,
		1.0,
		0.0]
	},
	{
		"bufferView":3,
		"type":"VEC2",
		"componentType":5126,
		"count":152,
		"byteOffset":24,
		"min":[0.0,
		0.0],
		"max":[1.0,
		1.0]
	},
	{
		"bufferView":4,
		"type":"SCALAR",
		"componentType":5123,
		"count":228,
		"byteOffset":0,
		"min":[0],
		"max":[151]
	},
	{
		"bufferView":5,
		"type":"VEC3",
		"componentType":5126,
		"count":152,
		"byteOffset":0,
		"min":[-18.727094650268556,
		0.05000000074505806,
		-44.046024322509769],
		"max":[1.9936801195144654,
		0.05010054260492325,
		-28.770063400268556]
	},
	{
		"bufferView":5,
		"type":"VEC3",
		"componentType":5126,
		"count":152,
		"byteOffset":12,
		"min":[0.0,
		-1.0,
		0.0],
		"max":[0.0,
		1.0,
		0.0]
	},
	{
		"bufferView":5,
		"type":"VEC2",
		"componentType":5126,
		"count":152,
		"byteOffset":24,
		"min":[0.0,
		0.0],
		"max":[1.0,
		1.0]
	}],
	"bufferViews":[{
		"buffer":0,
		"byteOffset":0,
		"byteLength":1122,
		"target":34963
	},
	{
		"buffer":0,
		"byteOffset":1124,
		"byteLength":7584,
		"target":34962,
		"byteStride":32
	},
	{
		"buffer":1,
		"byteOffset":0,
		"byteLength":516,
		"target":34963
	},
	{
		"buffer":1,
		"byteOffset":516,
		"byteLength":4864,
		"target":34962,
		"byteStride":32
	},
	{
		"buffer":2,
		"byteOffset":0,
		"byteLength":456,
		"target":34963
	},
	{
		"buffer":2,
		"byteOffset":456,
		"byteLength":4864,
		"target":34962,
		"byteStride":32
	}],
	"buffers":[{
		"uri":"data:application/octet-stream;base64,",
		"byteLength":8708
	},
	{
		"uri":"data:application/octet-stream;base64,",
		"byteLength":5380
	},
	{
		"uri":"data:application/octet-stream;base64,",
		"byteLength":5320
	}],
	"materials":[{
		"name":"Mat",
		"pbrMetallicRoughness":{
			"baseColorFactor":[0.5774333333333335,
			0.85,
			0.5355,
			1.0],
			"metallicFactor":0.0,
			"roughnessFactor":0.5
		},
		"emissiveFactor":[0.0,
		0.0,
		0.0],
		"alphaMode":"OPAQUE",
		"doubleSided":true
	},
	{
		"name":"Mat",
		"pbrMetallicRoughness":{
			"baseColorFactor":[0.63,
			0.59031,
			0.5858999999999999,
			1.0],
			"metallicFactor":0.0,
			"roughnessFactor":0.5
		},
		"emissiveFactor":[0.0,
		0.0,
		0.0],
		"alphaMode":"OPAQUE",
		"doubleSided":true
	}]
}