{
	"asset":{
		"version":"2.0",
		"generator":"Created using the official Cinema 4D glTF Exporter 1.000x284978"
	},
	"scenes":[{
		"nodes":[0]
	}],
	"nodes":[{
		"name":"Buildings",
		"translation":[0.0,
		0.0,
		0.0],
		"rotation":[0.0,
		0.0,
		0.0,
		-1.0],
		"scale":[1.0,
		1.0,
		1.0],
		"children":[1,
		2]
	},
	{
		"name":"Buildings-Mat.3",
		"translation":[0.0,
		0.0,
		0.0],
		"rotation":[0.0,
		0.0,
		0.0,
		-1.0],
		"mesh":0,
		"scale":[1.0,
		1.0,
		1.0]
	},
	{
		"name":"Buildings-Mat.4",
		"translation":[0.0,
		0.0,
		0.0],
		"rotation":[0.0,
		0.0,
		0.0,
		-1.0],
		"mesh":1,
		"scale":[1.0,
		1.0,
		1.0]
	}],
	"meshes":[{
		"name":"Buildings-Mat.3",
		"primitives":[{
			"attributes":{
				"POSITION":1,
				"NORMAL":2,
				"TEXCOORD_0":3
			},
			"indices":0,
			"material":0
		}]
	},
	{
		"name":"Buildings-Mat.4",
		"primitives":[{
			"attributes":{
				"POSITION":5,
				"NORMAL":6,
				"TEXCOORD_0":7
			},
			"indices":4,
			"material":1
		}]
	}],
	"accessors":[{
		"bufferView":0,
		"type":"SCALAR",
		"componentType":5123,
		"count":3894,
		"byteOffset":0,
		"min":[0],
		"max":[2024]
	},
	{
		"bufferView":1,
		"type":"VEC3",
		"componentType":5126,
		"count":2025,
		"byteOffset":0,
		"min":[-55.11307144165039,
		-0.26455286145210268,
		-78.08905792236328],
		"max":[43.031551361083987,
		16.848844528198243,
		68.52700805664063]
	},
	{
		"bufferView":1,
		"type":"VEC3",
		"componentType":5126,
		"count":2025,
		"byteOffset":12,
		"min":[-1.0,
		-1.0,
		-1.0],
		"max":[1.0,
		1.0,
		1.0]
	},
	{
		"bufferView":1,
		"type":"VEC2",
		"componentType":5126,
		"count":2025,
		"byteOffset":24,
		"min":[0.0,
		0.0],
		"max":[1.0,
		1.0]
	},
	{
		"bufferView":2,
		"type":"SCALAR",
		"componentType":5123,
		"count":1152,
		"byteOffset":0,
		"min":[0],
		"max":[551]
	},
	{
		"bufferView":3,
		"type":"VEC3",
		"componentType":5126,
		"count":552,
		"byteOffset":0,
		"min":[-59.30913162231445,
		-0.26455286145210268,
		-60.25093078613281],
		"max":[49.75172424316406,
		14.620294570922852,
		44.428226470947269]
	},
	{
		"bufferView":3,
		"type":"VEC3",
		"componentType":5126,
		"count":552,
		"byteOffset":12,
		"min":[-1.0,
		-1.0,
		-1.0],
		"max":[1.0,
		1.0,
		1.0]
	},
	{
		"bufferView":3,
		"type":"VEC2",
		"componentType":5126,
		"count":552,
		"byteOffset":24,
		"min":[0.0,
		0.0],
		"max":[1.0,
		1.0]
	}],
	"bufferViews":[{
		"buffer":0,
		"byteOffset":0,
		"byteLength":7788,
		"target":34963
	},
	{
		"buffer":0,
		"byteOffset":7788,
		"byteLength":64800,
		"target":34962,
		"byteStride":32
	},
	{
		"buffer":1,
		"byteOffset":0,
		"byteLength":2304,
		"target":34963
	},
	{
		"buffer":1,
		"byteOffset":2304,
		"byteLength":17664,
		"target":34962,
		"byteStride":32
	}],
	"buffers":[{
		"uri":"data:application/octet-stream;base64,",
		"byteLength":72588
	},
	{
		"uri":"data:application/octet-stream;base64,",
		"byteLength":19968
	}],
	"materials":[{
		"name":"Mat.3",
		"pbrMetallicRoughness":{
			"baseColorFactor":[1.0,
			1.0,
			1.0,
			1.0],
			"metallicFactor":0.0,
			"roughnessFactor":0.5
		},
		"emissiveFactor":[0.0,
		0.0,
		0.0],
		"alphaMode":"OPAQUE",
		"doubleSided":true
	},
	{
		"name":"Mat.4",
		"pbrMetallicRoughness":{
			"baseColorFactor":[0.88,
			0.976,
			1.0,
			1.0],
			"metallicFactor":0.0,
			"roughnessFactor":0.5
		},
		"emissiveFactor":[0.0,
		0.0,
		0.0],
		"alphaMode":"OPAQUE",
		"doubleSided":true
	}]
}