{
	"asset":{
		"version":"2.0",
		"generator":"Created using the official Cinema 4D glTF Exporter 1.000x284978"
	},
	"scenes":[{
		"nodes":[0]
	}],
	"nodes":[{
		"name":"Circulation",
		"translation":[0.0,
		0.0,
		0.0],
		"rotation":[0.0,
		0.0,
		0.0,
		-1.0],
		"scale":[1.0,
		1.0,
		1.0],
		"mesh":0
	}],
	"meshes":[{
		"name":"Circulation",
		"primitives":[{
			"attributes":{
				"POSITION":1,
				"NORMAL":2,
				"TEXCOORD_0":3
			},
			"indices":0
		}]
	}],
	"accessors":[{
		"bufferView":0,
		"type":"SCALAR",
		"max":[175],
		"componentType":5123,
		"count":516,
		"min":[0],
		"byteOffset":0
	},
	{
		"bufferView":1,
		"type":"VEC3",
		"max":[776.2877197265625,
		5.088799953460693,
		2068.9609375],
		"componentType":5126,
		"count":176,
		"min":[-2159.64501953125,
		0.0,
		-2022.0460205078126],
		"byteOffset":0
	},
	{
		"bufferView":1,
		"type":"VEC3",
		"max":[0.0,
		-1.0,
		0.0],
		"componentType":5126,
		"count":176,
		"min":[0.0,
		-1.0,
		0.0],
		"byteOffset":12
	},
	{
		"bufferView":1,
		"type":"VEC2",
		"max":[0.99609375,
		0.5899515151977539],
		"componentType":5126,
		"count":176,
		"min":[0.00390625,
		0.5458288192749023],
		"byteOffset":24
	}],
	"bufferViews":[{
		"buffer":0,
		"byteOffset":0,
		"byteLength":1032,
		"target":34963
	},
	{
		"buffer":0,
		"byteOffset":1032,
		"byteLength":5632,
		"target":34962,
		"byteStride":32
	}],
	"buffers":[{
		"uri":"data:application/octet-stream;base64,",
		"byteLength":6664
	}]
}