{
	"asset":{
		"version":"2.0",
		"generator":"Created using the official Cinema 4D glTF Exporter 1.000x284978"
	},
	"scenes":[{
		"nodes":[0]
	}],
	"nodes":[{
		"name":"Collaboration",
		"translation":[0.0,
		0.0,
		0.0],
		"rotation":[0.0,
		0.0,
		0.0,
		-1.0],
		"scale":[1.0,
		1.0,
		1.0],
		"mesh":0
	}],
	"meshes":[{
		"name":"Collaboration",
		"primitives":[{
			"attributes":{
				"POSITION":1,
				"NORMAL":2,
				"TEXCOORD_0":3
			},
			"indices":0
		}]
	}],
	"accessors":[{
		"bufferView":0,
		"type":"SCALAR",
		"componentType":5123,
		"byteOffset":0,
		"count":22896,
		"min":[0],
		"max":[4143]
	},
	{
		"bufferView":1,
		"type":"VEC3",
		"componentType":5126,
		"byteOffset":0,
		"count":4144,
		"min":[511.85650634765627,
		72.37110137939453,
		-498.82470703125],
		"max":[1490.06201171875,
		334.33990478515627,
		473.31610107421877]
	},
	{
		"bufferView":1,
		"type":"VEC3",
		"componentType":5126,
		"byteOffset":12,
		"count":4144,
		"min":[-0.9993125200271606,
		-0.9998750686645508,
		-0.9998750686645508],
		"max":[0.9993125200271606,
		0.9998750686645508,
		0.9998750686645508]
	},
	{
		"bufferView":1,
		"type":"VEC2",
		"componentType":5126,
		"byteOffset":24,
		"count":4144,
		"min":[0.0027596282307058574,
		0.8882306814193726],
		"max":[1.0045455694198609,
		0.9937472343444824]
	}],
	"bufferViews":[{
		"buffer":0,
		"byteOffset":0,
		"byteLength":45792,
		"target":34963
	},
	{
		"buffer":0,
		"byteOffset":45792,
		"byteLength":132608,
		"target":34962,
		"byteStride":32
	}],
	"buffers":[{
		"uri":"data:application/octet-stream;base64,",
		"byteLength":178400
	}]
}