{
	"asset":{
		"version":"2.0",
		"generator":"Created using the official Cinema 4D glTF Exporter 1.000x284978"
	},
	"scenes":[{
		"nodes":[0]
	}],
	"nodes":[{
		"name":"Collaboration",
		"translation":[0.0,
		0.0,
		0.0],
		"rotation":[0.0,
		0.0,
		0.0,
		-1.0],
		"mesh":0,
		"scale":[1.0,
		1.0,
		1.0]
	}],
	"meshes":[{
		"name":"Collaboration",
		"primitives":[{
			"attributes":{
				"POSITION":1,
				"NORMAL":2,
				"TEXCOORD_0":3
			},
			"indices":0
		}]
	}],
	"accessors":[{
		"bufferView":0,
		"type":"SCALAR",
		"componentType":5123,
		"count":10608,
		"byteOffset":0,
		"min":[0],
		"max":[2087]
	},
	{
		"bufferView":1,
		"type":"VEC3",
		"componentType":5126,
		"count":2088,
		"byteOffset":0,
		"min":[-45.17179870605469,
		0.47690001130104067,
		-34.18920135498047],
		"max":[45.73109817504883,
		13.227499961853028,
		39.63050079345703]
	},
	{
		"bufferView":1,
		"type":"VEC3",
		"componentType":5126,
		"count":2088,
		"byteOffset":12,
		"min":[-1.0,
		-0.9999688267707825,
		-1.0],
		"max":[1.0,
		0.9999688267707825,
		1.0]
	},
	{
		"bufferView":1,
		"type":"VEC2",
		"componentType":5126,
		"count":2088,
		"byteOffset":24,
		"min":[0.00390625,
		0.788605809211731],
		"max":[1.0038909912109376,
		0.99609375]
	}],
	"bufferViews":[{
		"buffer":0,
		"byteOffset":0,
		"byteLength":21216,
		"target":34963
	},
	{
		"buffer":0,
		"byteOffset":21216,
		"byteLength":66816,
		"target":34962,
		"byteStride":32
	}],
	"buffers":[{
		"uri":"data:application/octet-stream;base64,",
		"byteLength":88032
	}]
}