{
	"asset":{
		"version":"2.0",
		"generator":"Created using the official Cinema 4D glTF Exporter 1.000x284978"
	},
	"scenes":[{
		"nodes":[0]
	}],
	"nodes":[{
		"name":"Lines",
		"translation":[0.0,
		0.0,
		0.0],
		"rotation":[0.0,
		0.0,
		0.0,
		-1.0],
		"mesh":0,
		"scale":[1.0,
		1.0,
		1.0]
	}],
	"meshes":[{
		"name":"Lines",
		"primitives":[{
			"attributes":{
				"POSITION":1,
				"NORMAL":2,
				"TEXCOORD_0":3
			},
			"indices":0
		}]
	}],
	"accessors":[{
		"bufferView":0,
		"type":"SCALAR",
		"componentType":5123,
		"count":240,
		"byteOffset":0,
		"min":[0],
		"max":[143]
	},
	{
		"bufferView":1,
		"type":"VEC3",
		"componentType":5126,
		"count":144,
		"byteOffset":0,
		"min":[-18.88616180419922,
		0.26089999079704287,
		-40.69219970703125],
		"max":[0.9054999947547913,
		3.01833176612854,
		-28.540325164794923]
	},
	{
		"bufferView":1,
		"type":"VEC3",
		"componentType":5126,
		"count":144,
		"byteOffset":12,
		"min":[-0.8575937747955322,
		-0.9221562743186951,
		-0.9222812652587891],
		"max":[0.8575937747955322,
		0.9220938086509705,
		0.9222812652587891]
	},
	{
		"bufferView":1,
		"type":"VEC2",
		"componentType":5126,
		"count":144,
		"byteOffset":24,
		"min":[0.00390625,
		0.8526413440704346],
		"max":[0.9966152906417847,
		0.99609375]
	}],
	"bufferViews":[{
		"buffer":0,
		"byteOffset":0,
		"byteLength":480,
		"target":34963
	},
	{
		"buffer":0,
		"byteOffset":480,
		"byteLength":4608,
		"target":34962,
		"byteStride":32
	}],
	"buffers":[{
		"uri":"data:application/octet-stream;base64,",
		"byteLength":5088
	}]
}