{
	"asset":{
		"version":"2.0",
		"generator":"Created using the official Cinema 4D glTF Exporter 1.000x284978"
	},
	"scenes":[{
		"nodes":[0]
	}],
	"nodes":[{
		"name":"Lines",
		"translation":[0.0,
		0.0,
		0.0],
		"rotation":[0.0,
		0.0,
		0.0,
		-1.0],
		"scale":[1.0,
		1.0,
		1.0],
		"mesh":0
	}],
	"meshes":[{
		"name":"Lines",
		"primitives":[{
			"attributes":{
				"POSITION":1,
				"NORMAL":2,
				"TEXCOORD_0":3
			},
			"indices":0
		}]
	}],
	"accessors":[{
		"bufferView":0,
		"type":"SCALAR",
		"max":[27],
		"componentType":5123,
		"count":42,
		"min":[0],
		"byteOffset":0
	},
	{
		"bufferView":1,
		"type":"VEC3",
		"max":[549.345703125,
		504.3273010253906,
		536.7777709960938],
		"componentType":5126,
		"count":28,
		"min":[-981.22802734375,
		139.52110290527345,
		-518.8206176757813],
		"byteOffset":0
	},
	{
		"bufferView":1,
		"type":"VEC3",
		"max":[1.0,
		0.0,
		0.0],
		"componentType":5126,
		"count":28,
		"min":[1.0,
		0.0,
		0.0],
		"byteOffset":12
	},
	{
		"bufferView":1,
		"type":"VEC2",
		"max":[0.9825617074966431,
		0.4639101028442383],
		"componentType":5126,
		"count":28,
		"min":[0.023863140493631364,
		0.05878540128469467],
		"byteOffset":24
	}],
	"bufferViews":[{
		"buffer":0,
		"byteOffset":0,
		"byteLength":84,
		"target":34963
	},
	{
		"buffer":0,
		"byteOffset":84,
		"byteLength":896,
		"target":34962,
		"byteStride":32
	}],
	"buffers":[{
		"uri":"data:application/octet-stream;base64,",
		"byteLength":980
	}]
}