{
	"asset":{
		"version":"2.0",
		"generator":"Created using the official Cinema 4D glTF Exporter 1.000x284978"
	},
	"scenes":[{
		"nodes":[0]
	}],
	"nodes":[{
		"name":"Traffic",
		"translation":[0.0,
		0.0,
		0.0],
		"rotation":[0.0,
		0.0,
		0.0,
		-1.0],
		"mesh":0,
		"scale":[1.0,
		1.0,
		1.0]
	}],
	"meshes":[{
		"name":"Traffic",
		"primitives":[{
			"attributes":{
				"POSITION":1,
				"NORMAL":2,
				"TEXCOORD_0":3
			},
			"indices":0
		}]
	}],
	"accessors":[{
		"bufferView":0,
		"type":"SCALAR",
		"componentType":5123,
		"count":1092,
		"byteOffset":0,
		"min":[0],
		"max":[394]
	},
	{
		"bufferView":1,
		"type":"VEC3",
		"componentType":5126,
		"count":395,
		"byteOffset":0,
		"min":[-79.43470001220703,
		0.0,
		-80.72380065917969],
		"max":[79.18479919433594,
		0.20000000298023225,
		80.64949798583985]
	},
	{
		"bufferView":1,
		"type":"VEC3",
		"componentType":5126,
		"count":395,
		"byteOffset":12,
		"min":[0.0,
		1.0,
		0.0],
		"max":[0.0,
		1.0,
		0.0]
	},
	{
		"bufferView":1,
		"type":"VEC2",
		"componentType":5126,
		"count":395,
		"byteOffset":24,
		"min":[0.00390625,
		0.8606027364730835],
		"max":[0.9950803518295288,
		0.99609375]
	}],
	"bufferViews":[{
		"buffer":0,
		"byteOffset":0,
		"byteLength":2184,
		"target":34963
	},
	{
		"buffer":0,
		"byteOffset":2184,
		"byteLength":12640,
		"target":34962,
		"byteStride":32
	}],
	"buffers":[{
		"uri":"data:application/octet-stream;base64,",
		"byteLength":14824
	}]
}